<?xml version="1.0" standalone="no"?>
<!DOCTYPE svg PUBLIC "-//W3C//DTD SVG 1.1//EN" "http://www.w3.org/Graphics/SVG/1.1/DTD/svg11.dtd" >
<svg xmlns="http://www.w3.org/2000/svg">
<metadata></metadata>
<defs>
<font id="helvetica_neueblack_24" horiz-adv-x="1064" >
<font-face units-per-em="2048" ascent="1638" descent="-410" />
<missing-glyph horiz-adv-x="532" />
<glyph horiz-adv-x="0" />
<glyph horiz-adv-x="0" />
<glyph unicode="&#xd;" horiz-adv-x="512" />
<glyph unicode=" "  horiz-adv-x="532" />
<glyph unicode="&#x09;" horiz-adv-x="532" />
<glyph unicode="&#xa0;" horiz-adv-x="532" />
<glyph unicode="!" horiz-adv-x="643" d="M143 973v489h357v-489l-43 -549h-275zM152 0v324h344v-324h-344z" />
<glyph unicode="&#x22;" horiz-adv-x="985" d="M113 696v766h286v-766h-286zM586 696v766h286v-766h-286z" />
<glyph unicode="#" d="M20 354v238h181l28 237h-149v238h180l45 354h225l-45 -354h183l45 354h225l-45 -354h151v-238h-180l-30 -237h151v-238h-180l-45 -354h-225l45 354h-185l-45 -354h-225l45 354h-150zM426 592h182l31 237h-184z" />
<glyph unicode="$" d="M27 371v55h368v-39q0 -90 35 -126t92 -36q59 0 91 39t32 94q0 72 -44 112t-110.5 69.5t-144.5 59.5t-144.5 78t-110.5 126t-44 203q0 383 375 444v119h188v-119q205 -20 297 -123.5t92 -314.5h-356v30q0 61 -26.5 107.5t-81.5 46.5q-61 0 -90 -40t-29 -87q0 -72 46 -113 t115.5 -70.5t149.5 -57t149.5 -77t115.5 -130t46 -211.5q0 -209 -108.5 -312.5t-319.5 -126.5v-184h-188v184q-193 20 -294 112.5t-101 287.5z" />
<glyph unicode="%" horiz-adv-x="1593" d="M35 1057q0 106 16.5 181t54 122t99 68.5t151.5 21.5t151.5 -21.5t99.5 -68.5t54.5 -122t16.5 -181t-16.5 -181t-54.5 -122t-99.5 -68.5t-151.5 -21.5t-151.5 21.5t-99 68.5t-54 122t-16.5 181zM285 1057q0 -70 3 -115t10 -70.5t21.5 -35t36.5 -9.5q23 0 37.5 9.5t21.5 35 t10 70.5t3 115q0 72 -3 116t-10 69.5t-21.5 34.5t-37.5 9t-37 -9t-21 -34.5t-10 -69.5t-3 -116zM358 -29l650 1479h225l-649 -1479h-226zM915 365q0 106 16.5 181t54.5 122t99.5 68.5t151.5 21.5t151.5 -21.5t99.5 -68.5t54.5 -122t16.5 -181t-16.5 -181t-54.5 -122.5 t-99.5 -69t-151.5 -21.5t-151.5 21.5t-99.5 69t-54.5 122.5t-16.5 181zM1165 365q0 -70 3 -115t10.5 -70.5t21.5 -35t37 -9.5t37 9.5t21.5 35t10.5 70.5t3 115q0 72 -3 115.5t-10.5 69t-21.5 35t-37 9.5t-37 -9.5t-21.5 -35t-10.5 -69t-3 -115.5z" />
<glyph unicode="&#x26;" horiz-adv-x="1251" d="M6 383q0 127 66.5 237.5t208.5 186.5q-55 76 -97.5 162t-42.5 170q0 76 30 138t84 107.5t130 70t170 24.5q96 0 173 -24.5t131 -70t84 -108t30 -137.5q0 -106 -66.5 -201.5t-187.5 -173.5l166 -223q23 37 34 81t15 91h319q-6 -123 -45 -238t-127 -201l197 -274h-406 l-63 86q-82 -47 -161 -81t-193 -34q-92 0 -173 26t-142.5 77t-97.5 129t-36 180zM362 424q0 -72 49.5 -119t108.5 -47q33 0 69 15.5t58 33.5l-194 264q-45 -35 -68 -74.5t-23 -72.5zM449 1163q0 -33 22.5 -73.5t73.5 -106.5q68 61 94.5 104t26.5 76q0 45 -31 74t-78 29 t-77.5 -29t-30.5 -74z" />
<glyph unicode="'" horiz-adv-x="532" d="M123 696v766h287v-766h-287z" />
<glyph unicode="(" horiz-adv-x="643" d="M61 543q0 252 79 481t212 438h299q-131 -217 -188 -446.5t-57 -472.5q0 -244 57 -473.5t188 -446.5h-299q-133 209 -212 438.5t-79 481.5z" />
<glyph unicode=")" horiz-adv-x="643" d="M-8 -377q131 217 188.5 446.5t57.5 473.5t-57.5 473t-188.5 446h299q133 -209 212 -438t79 -481t-79 -481.5t-212 -438.5h-299z" />
<glyph unicode="*" horiz-adv-x="831" d="M-8 1081l63 191l260 -84v274h201v-274l260 84l64 -191l-262 -84l155 -219l-164 -119l-153 222l-154 -222l-164 119l156 219z" />
<glyph unicode="+" horiz-adv-x="1228" d="M96 375v287h375v374h287v-374h375v-287h-375v-375h-287v375h-375z" />
<glyph unicode="," horiz-adv-x="532" d="M94 12v394h344v-369q0 -199 -81 -296t-263 -101v176q74 8 102.5 49t28.5 123v24h-131z" />
<glyph unicode="-" horiz-adv-x="753" d="M57 436v312h639v-312h-639z" />
<glyph unicode="." horiz-adv-x="532" d="M94 0v406h344v-406h-344z" />
<glyph unicode="/" horiz-adv-x="681" d="M-45 -29l465 1520h307l-465 -1520h-307z" />
<glyph unicode="0" d="M39 711q0 219 29.5 362.5t90 227t154 116.5t219.5 33q127 0 220.5 -33t154 -116.5t90 -227t29.5 -362.5t-29.5 -362.5t-90 -227.5t-154 -117t-220.5 -33t-220 33t-153.5 117t-90 227.5t-29.5 362.5zM420 471q0 -78 6 -128t20.5 -80t35 -42t50.5 -12q31 0 51.5 12t35 42 t20.5 80t6 128v479q0 78 -6 128t-20.5 80t-35 42t-51.5 12t-51 -12t-34.5 -42t-20.5 -80t-6 -128v-479z" />
<glyph unicode="1" d="M100 987v238q88 0 151.5 11t109 36.5t74 68.5t46.5 109h275v-1450h-381v987h-275z" />
<glyph unicode="2" d="M39 0q0 152 46 289t171 266l254 258q55 55 78.5 105.5t23.5 132.5q0 92 -26.5 126.5t-71.5 34.5q-20 0 -38.5 -7t-34 -27.5t-24.5 -58.5t-9 -99v-62h-357q2 113 19.5 202t70.5 155t145.5 100.5t239.5 34.5q143 0 233.5 -30.5t142.5 -85t71.5 -126t19.5 -153.5 q0 -147 -49 -247.5t-131 -182.5l-225 -219q-25 -25 -54.5 -56t-39.5 -63h499v-287h-954z" />
<glyph unicode="3" d="M39 434h356q0 -61 7.5 -102t19.5 -70q25 -53 86 -53q33 0 53.5 9t31.5 35t15 70t4 111q0 109 -33.5 144.5t-105.5 35.5h-96v238h55q43 0 74 8t51.5 30.5t30.5 62.5t10 104q0 90 -23.5 122.5t-72.5 32.5q-55 0 -79 -42t-24 -158h-344q6 227 119 331q113 106 336 107 q133 0 221 -26.5t140.5 -78t74 -126t21.5 -170.5q0 -45 -10.5 -90.5t-34 -85t-62.5 -70.5t-96 -43v-4q66 -12 108.5 -41t70.5 -71t39 -94t11 -112q0 -246 -118.5 -356.5t-354.5 -110.5q-123 0 -214 23.5t-150.5 77t-88 142.5t-28.5 220z" />
<glyph unicode="4" d="M33 270v287l459 864h413v-876h127v-275h-127v-270h-356v270h-516zM319 545h242v483h-4z" />
<glyph unicode="5" d="M39 387v47h356v-49q0 -104 28 -140t77 -36q29 0 48 9t33.5 42t20.5 94.5t6 165.5q0 123 -27.5 171t-80.5 48q-47 0 -76 -28.5t-29 -94.5h-344l33 805h842v-286h-551l-17 -244q53 49 120 77.5t149 28.5q176 0 269 -113.5t93 -346.5q0 -141 -23.5 -247t-79 -176.5 t-146.5 -106.5t-226 -36q-252 0 -363.5 109.5t-111.5 306.5z" />
<glyph unicode="6" d="M39 588v162q0 168 17.5 298t70.5 219t151.5 136t260.5 47q141 0 230 -30.5t139 -83t69.5 -120t19.5 -139.5h-356q-4 76 -29 107q-23 29 -75 28q-41 0 -73 -33.5t-32 -103.5v-231h4q25 53 92.5 83.5t151.5 30.5q78 0 141.5 -20t109.5 -71.5t70.5 -136.5t24.5 -212 q0 -147 -31.5 -250.5t-94 -170t-153 -96.5t-206.5 -30q-125 0 -218.5 30t-157 101.5t-95 189.5t-31.5 296zM432 446q0 -139 23.5 -188t83.5 -49q53 0 79.5 49t26.5 188t-23.5 188.5t-82.5 49.5q-53 0 -80 -49.5t-27 -188.5z" />
<glyph unicode="7" d="M51 1110v311h946v-284q-76 -119 -140 -260.5t-113.5 -290t-82 -299t-43.5 -287.5h-393q14 139 46 284.5t83.5 288t121 278.5t159.5 259h-584z" />
<glyph unicode="8" d="M39 430q0 133 60.5 225.5t181.5 108.5v4q-63 16 -105.5 46t-67 69t-33.5 85t-9 93q0 86 25.5 157.5t81.5 123t145.5 80t213.5 28.5q127 0 215.5 -28.5t144.5 -80t81.5 -123t25.5 -157.5q0 -47 -9 -93t-33.5 -85t-66.5 -69t-106 -46v-4q66 -12 112 -43t74.5 -75t42 -99 t13.5 -117q0 -135 -34 -223t-96 -140.5t-154.5 -74t-209.5 -21.5t-208 21.5t-154.5 74t-97 140.5t-33.5 223zM420 424q0 -129 30.5 -172t81.5 -43q53 0 83 43t30 172q0 127 -29.5 170t-83.5 43q-51 0 -81.5 -43t-30.5 -170zM434 1038q0 -106 30 -141t68 -35q41 0 70 35 t29 141t-29 140t-70 34q-39 0 -68.5 -34t-29.5 -140z" />
<glyph unicode="9" d="M39 903q0 147 31.5 250.5t94 170.5t153 96.5t206.5 29.5q125 0 219.5 -29.5t157 -101.5t94 -190.5t31.5 -297.5v-159q0 -168 -17.5 -298t-70.5 -219t-151.5 -136.5t-260.5 -47.5q-141 0 -229 31t-139.5 83t-70.5 119.5t-19 139.5h356q4 -76 29 -106q23 -29 75 -29 q41 0 73 33.5t32 101.5v231h-4q-25 -51 -92.5 -81.5t-151.5 -30.5q-78 0 -141.5 21.5t-109.5 71.5t-70.5 135t-24.5 212zM420 975q0 -139 23.5 -188.5t82.5 -49.5q53 0 80 49.5t27 188.5t-23.5 188t-83.5 49q-53 0 -79.5 -49t-26.5 -188z" />
<glyph unicode=":" horiz-adv-x="532" d="M94 0v406h344v-406h-344zM94 702v406h344v-406h-344z" />
<glyph unicode=";" horiz-adv-x="532" d="M94 12v394h344v-369q0 -199 -81 -296t-263 -101v176q74 8 102.5 49t28.5 123v24h-131zM94 702v406h344v-406h-344z" />
<glyph unicode="&#x3c;" horiz-adv-x="1228" d="M96 389v258l1037 426v-274l-693 -281l693 -280v-275z" />
<glyph unicode="=" horiz-adv-x="1228" d="M96 145v287h1037v-287h-1037zM96 604v287h1037v-287h-1037z" />
<glyph unicode="&#x3e;" horiz-adv-x="1228" d="M96 -37v275l692 280l-692 281v274l1037 -426v-258z" />
<glyph unicode="?" horiz-adv-x="1024" d="M66 999q0 135 29.5 229.5t86.5 151.5q59 59 144.5 85t197.5 26q223 0 328.5 -110.5t105.5 -295.5q0 -84 -21.5 -157.5t-74.5 -132.5l-149 -170q-29 -33 -38 -84.5t-9 -116.5h-332v57q0 117 18.5 189.5t69.5 132.5l121 137q41 47 50 95t9 85q0 59 -22.5 96t-69.5 37 q-25 0 -43 -9t-30.5 -35.5t-19.5 -77t-7 -132.5h-344zM328 0v324h344v-324h-344z" />
<glyph unicode="@" horiz-adv-x="1638" d="M59 731q0 158 59.5 296t163 241.5t242 163t295.5 59.5q152 0 289 -43t241.5 -123t167 -194.5t62.5 -256.5q0 -129 -51 -232t-128 -174t-169 -108.5t-174 -37.5q-47 0 -80 23.5t-39 66.5h-8q-35 -41 -91.5 -65.5t-125.5 -24.5q-63 0 -122 25.5t-103 72.5t-69.5 111.5 t-25.5 144.5q0 90 30 174t84 149.5t131 104.5t171 39q78 0 142.5 -30t115.5 -95l16 76h189l-82 -432q-4 -23 -9 -51.5t-5 -43.5q0 -45 34 -45q27 0 57.5 18.5t58.5 56.5t46.5 99.5t18.5 147.5q0 111 -40 195.5t-113 143t-172 89.5t-216 31q-129 0 -233.5 -42t-178 -119 t-113.5 -181.5t-40 -231.5q0 -133 44 -238.5t123.5 -179t190.5 -112.5t242 -39q117 0 216 31.5t177 89.5h225q-111 -152 -273.5 -231t-410.5 -79q-158 0 -296 59.5t-241.5 163t-163 241.5t-59.5 296zM643 709q0 -66 40 -114t108 -48q47 0 84.5 17.5t65.5 46t43 66.5t15 79 q0 72 -44 117t-117 45q-41 0 -77 -18.5t-61.5 -48.5t-41 -67.5t-15.5 -74.5z" />
<glyph unicode="A" horiz-adv-x="1138" d="M-27 0l357 1462h479l356 -1462h-405l-39 256h-303l-39 -256h-406zM463 543h213l-105 620h-4z" />
<glyph unicode="B" horiz-adv-x="1175" d="M102 0v1462h576q205 0 302 -100t97 -264q0 -57 -13 -111.5t-41 -98.5t-71 -75t-104 -43v-4q72 -6 123 -38t83.5 -79t48 -103.5t15.5 -113.5q0 -94 -24.5 -174t-76.5 -137.5t-136 -89t-203 -31.5h-576zM483 274h107q53 0 94 45.5t41 135.5q0 86 -41 131t-94 45h-107v-357z M483 889h92q59 0 90 44t31 103q0 61 -30.5 106.5t-90.5 45.5h-92v-299z" />
<glyph unicode="C" horiz-adv-x="1099" d="M47 731q0 209 25.5 354.5t87 235.5t162 130t247.5 40q129 0 219.5 -33t146.5 -93t81.5 -145t25.5 -192v-92h-368v82q0 125 -24.5 170t-80.5 45q-43 0 -68.5 -22.5t-38.5 -80t-17.5 -154.5t-4.5 -245q0 -147 4.5 -244.5t17.5 -155t38.5 -80t68.5 -22.5q35 0 57.5 17.5 t35 58.5t17.5 109.5t5 173.5h369v-109q0 -154 -41 -252t-108.5 -155.5t-154.5 -79t-180 -21.5q-160 0 -262 42t-159.5 133.5t-79 235.5t-21.5 349z" />
<glyph unicode="D" horiz-adv-x="1175" d="M90 0v1462h553q166 0 258 -60.5t138 -161.5t56.5 -233.5t10.5 -275.5t-10.5 -275t-56.5 -233.5t-138 -162t-258 -60.5h-553zM471 274h76q55 0 88 15.5t50 64.5t22.5 139.5t5.5 237.5t-5.5 237.5t-22.5 139.5t-50 64.5t-88 15.5h-76v-914z" />
<glyph unicode="E" horiz-adv-x="1024" d="M90 0v1462h866v-311h-485v-250h455v-299h-455v-291h504v-311h-885z" />
<glyph unicode="F" horiz-adv-x="985" d="M90 0v1462h866v-311h-485v-250h455v-299h-455v-602h-381z" />
<glyph unicode="G" horiz-adv-x="1138" d="M66 731q0 184 21.5 325.5t81.5 238t166.5 146.5t274.5 50q102 0 187.5 -26.5t147 -86t95 -152.5t33.5 -227h-368q0 115 -21 170q-23 63 -88 64q-47 0 -74.5 -22.5t-41 -80t-17.5 -154.5t-4 -245q0 -147 4 -244.5t17.5 -155t39 -80t68.5 -22.5q31 0 54.5 12.5t39.5 46.5 t25.5 93t9.5 156h-135v258h491v-795h-258l-8 129h-4q-18 -47 -52 -78t-76 -48t-90 -24.5t-98 -7.5q-145 0 -229 51.5t-127 147.5t-54 238.5t-11 322.5z" />
<glyph unicode="H" horiz-adv-x="1175" d="M90 0v1462h381v-536h234v536h380v-1462h-380v602h-234v-602h-381z" />
<glyph unicode="I" horiz-adv-x="532" d="M76 0v1462h381v-1462h-381z" />
<glyph unicode="J" horiz-adv-x="985" d="M2 444v31h344v-72q0 -104 27.5 -139t70.5 -35t71 35t28 139v1059h381v-1005q0 -264 -121 -375t-357 -111q-240 0 -342 122t-102 351z" />
<glyph unicode="K" horiz-adv-x="1138" d="M76 0v1462h381v-561h4l282 561h406l-369 -639l414 -823h-434l-223 510l-80 -123v-387h-381z" />
<glyph unicode="L" horiz-adv-x="948" d="M90 0v1462h381v-1151h469v-311h-850z" />
<glyph unicode="M" horiz-adv-x="1552" d="M76 0v1462h545l153 -866h4l154 866h545v-1462h-357v1090h-4l-203 -1090h-274l-203 1090h-4v-1090h-356z" />
<glyph unicode="N" horiz-adv-x="1212" d="M90 0v1462h426l246 -901h4v901h356v-1462h-417l-254 903h-5v-903h-356z" />
<glyph unicode="O" horiz-adv-x="1138" d="M47 731q0 205 26.5 349.5t88 235.5t162 133t245.5 42t245.5 -42t162 -133t88.5 -235.5t27 -349.5t-27 -349t-88.5 -235.5t-161.5 -133.5t-246 -42q-145 0 -245.5 42t-162 133.5t-88 235.5t-26.5 349zM440 731q0 -147 4.5 -244.5t17.5 -155t38.5 -80t68.5 -22.5t69 22.5 t39 80t17 155t4 244.5t-4 244.5t-17 155t-39 80t-69 22.5t-68.5 -22.5t-38.5 -80t-17.5 -155t-4.5 -244.5z" />
<glyph unicode="P" horiz-adv-x="1099" d="M76 0v1462h571q109 0 188.5 -34.5t132 -95t77 -142.5t24.5 -178q0 -225 -123 -340t-356 -115h-133v-557h-381zM457 831h71q72 0 110 43.5t38 135.5q0 178 -148 178h-71v-357z" />
<glyph unicode="Q" horiz-adv-x="1138" d="M47 731q0 205 26.5 349.5t88 235.5t162 133t245.5 42t245.5 -42t162 -133t88.5 -235.5t27 -349.5q0 -211 -29 -356.5t-94 -237.5l176 -182l-230 -199l-208 226q-16 -2 -33 -4.5t-33 -4.5t-34.5 -2h-37.5q-145 0 -245.5 42t-162 133.5t-88 235.5t-26.5 349zM440 731 q0 -147 4.5 -244.5t17.5 -155t38.5 -80t68.5 -22.5t69 22.5t39 80t17 155t4 244.5t-4 244.5t-17 155t-39 80t-69 22.5t-68.5 -22.5t-38.5 -80t-17.5 -155t-4.5 -244.5z" />
<glyph unicode="R" horiz-adv-x="1175" d="M90 0v1462h596q109 0 185.5 -28.5t124.5 -81t69.5 -124t21.5 -155.5q0 -147 -59 -237.5t-190 -110.5v-4q139 -12 189 -97t50 -231v-125v-59.5t2 -59t6.5 -51t10.5 -32.5q8 -12 16 -23.5t27 -22.5v-20h-406q-14 29 -21 67.5t-10.5 77.5t-4.5 75t-1 59v98q0 125 -27.5 167 t-97.5 42h-100v-586h-381zM471 844h76q82 0 121 48t39 126q0 90 -38 130t-124 40h-74v-344z" />
<glyph unicode="S" horiz-adv-x="1099" d="M45 383v51h369v-35q0 -94 34.5 -132t90.5 -38q59 0 91 41t32 101q0 72 -44.5 113.5t-111 71.5t-144 60.5t-144 79.5t-111 129t-44.5 209q0 223 119 340t361 117q250 0 361.5 -107.5t111.5 -343.5h-357v35q0 66 -26.5 112t-81.5 46q-61 0 -90 -40t-29 -89q0 -72 46 -114 t116 -72.5t149.5 -62.5t149.5 -83t116 -134t46 -216q0 -236 -132 -343.5t-386 -107.5q-119 0 -210 21.5t-153.5 71t-95.5 128t-33 191.5z" />
<glyph unicode="T" horiz-adv-x="946" d="M-4 1139v323h954v-323h-286v-1139h-381v1139h-287z" />
<glyph unicode="U" horiz-adv-x="1138" d="M74 504v958h381v-1054q0 -106 30.5 -142.5t83.5 -36.5t84 36t31 143v1054h381v-958q0 -154 -33 -256.5t-95.5 -163.5t-154.5 -87t-213 -26q-119 0 -212 26t-155.5 87t-95 163.5t-32.5 256.5z" />
<glyph unicode="V" d="M-29 1462h406l153 -1102h5l153 1102h406l-316 -1462h-491z" />
<glyph unicode="W" horiz-adv-x="1593" d="M0 1462h369l114 -1011h4l138 1011h344l149 -1011h4l103 1011h368l-250 -1462h-417l-127 983h-4l-127 -983h-418z" />
<glyph unicode="X" horiz-adv-x="1097" d="M-25 0l347 741l-322 721h426l121 -424h4l121 424h426l-318 -721l342 -741h-426l-145 440h-4l-146 -440h-426z" />
<glyph unicode="Y" d="M-31 1462h418l143 -510h5l143 510h418l-373 -887v-575h-381v575z" />
<glyph unicode="Z" horiz-adv-x="985" d="M41 0v274l459 877h-428v311h872v-274l-467 -877h467v-311h-903z" />
<glyph unicode="[" horiz-adv-x="643" d="M90 -377v1839h553v-258h-209v-1323h209v-258h-553z" />
<glyph unicode="\" horiz-adv-x="681" d="M-45 1491h307l465 -1520h-307z" />
<glyph unicode="]" horiz-adv-x="643" d="M0 -119h209v1323h-209v258h553v-1839h-553v258z" />
<glyph unicode="^" horiz-adv-x="1228" d="M96 674l359 747h319l359 -747h-287l-232 489l-231 -489h-287z" />
<glyph unicode="_" horiz-adv-x="1024" d="M0 -154h1024v-102h-1024v102z" />
<glyph unicode="`" horiz-adv-x="532" d="M2 1509h344l90 -299h-237z" />
<glyph unicode="a" horiz-adv-x="1024" d="M29 297q0 78 15 135t50 99t94.5 72t147.5 50l145 35q59 14 84 42t25 79q0 102 -94 102q-53 0 -78 -29.5t-27 -117.5h-319q0 119 43 192.5t106.5 113.5t137 53.5t137.5 13.5q96 0 177 -15.5t139 -55.5t90 -108.5t32 -177.5v-540q0 -78 6 -137.5t29 -102.5h-357 q-10 29 -14 59.5t-8 65.5h-4q-31 -74 -98.5 -114t-151.5 -40q-82 0 -140.5 24.5t-95.5 67.5t-54 102.5t-17 131.5zM385 340q0 -55 24.5 -88t65.5 -33q61 0 88 45t27 137v134h-4q-16 -23 -50 -28t-75 -24q-43 -20 -59.5 -54t-16.5 -89z" />
<glyph unicode="b" d="M80 0v1462h369v-479h4q29 86 91 120t140 34q80 0 143.5 -28t106.5 -92.5t66.5 -172t23.5 -266.5q0 -307 -72.5 -457t-259.5 -150q-98 0 -157.5 44t-94.5 137h-4v-152h-356zM449 553q0 -88 4 -147.5t15 -95.5t31.5 -50t51.5 -14q33 0 53.5 14t31.5 50t15 95.5t4 147.5 q0 90 -4 149.5t-15 95.5t-31.5 50t-53.5 14q-31 0 -51.5 -14t-31.5 -50t-15 -95.5t-4 -149.5z" />
<glyph unicode="c" horiz-adv-x="985" d="M41 535q0 197 39 315.5t105.5 182t156.5 84t195 20.5q123 0 203.5 -34t129 -94.5t67.5 -145.5t19 -189h-331q0 68 -6.5 109.5t-18.5 68.5q-23 47 -82 47q-31 0 -52.5 -15.5t-33.5 -55.5t-17 -106.5t-5 -168.5t5 -169t17 -105.5t33.5 -54t52.5 -15.5q51 0 79 39t28 143v72 h331q0 -131 -22.5 -223.5t-75.5 -151.5q-104 -117 -340 -117q-106 0 -193 20.5t-150.5 82t-98.5 172t-35 289.5z" />
<glyph unicode="d" d="M41 578q0 158 24.5 264t68.5 171.5t107.5 94.5t139.5 29q78 0 140.5 -34t90.5 -120h4v479h369v-1462h-356v152h-4q-35 -92 -94.5 -136.5t-157.5 -44.5q-186 0 -259 149.5t-73 457.5zM410 553q0 -88 4 -147.5t15 -95.5t31.5 -50t53.5 -14q31 0 51.5 14t31.5 50t15 95.5 t4 147.5q0 90 -4 149.5t-15 95.5t-31.5 50t-51.5 14q-33 0 -53.5 -14t-31.5 -50t-15 -95.5t-4 -149.5z" />
<glyph unicode="e" horiz-adv-x="985" d="M41 553q0 160 26.5 270.5t84 180t146.5 101.5t214 32q111 0 193.5 -27t139 -89.5t84 -163.5t27.5 -253v-112h-546v-146q0 -90 30.5 -119.5t69.5 -29.5q49 0 76.5 38.5t27.5 153.5h332q-2 -201 -103.5 -309.5t-330.5 -108.5q-133 0 -223 32t-145.5 101.5t-79 180 t-23.5 268.5zM410 692h202v49q0 88 -21.5 129t-80.5 41q-57 0 -78.5 -41t-21.5 -129v-49z" />
<glyph unicode="f" horiz-adv-x="645" d="M0 860v248h127v80q0 84 17.5 141t57.5 93t105.5 52.5t161.5 16.5q41 0 87 -3t89 -9v-232q-14 4 -27.5 5t-33.5 1q-35 0 -61.5 -18t-26.5 -59v-68h149v-248h-149v-860h-369v860h-127z" />
<glyph unicode="g" d="M51 578q0 160 23.5 267t67.5 171.5t107.5 92.5t143.5 28q78 0 145.5 -41t98.5 -142h4v154h344v-1090q0 -115 -36 -190.5t-98.5 -120.5t-146 -64.5t-182.5 -19.5q-88 0 -165.5 13.5t-136 48t-92.5 95t-36 154.5h332q0 -41 24.5 -63.5t67.5 -22.5q20 0 41 4.5t36 18.5 t25.5 41t10.5 74v211h-4q-35 -96 -103.5 -131t-146.5 -35q-55 0 -112.5 20.5t-104.5 79.5t-77 167t-30 280zM420 584q0 -88 7 -142.5t20.5 -85t33 -41t45.5 -10.5q25 0 44.5 10.5t32.5 41t19.5 85t6.5 142.5q0 86 -6.5 140t-19.5 85t-32.5 42t-44.5 11q-27 0 -46 -11 t-32.5 -42t-20.5 -85t-7 -140z" />
<glyph unicode="h" d="M74 0v1462h368v-477h4q47 88 118 120t138 32q57 0 109.5 -14.5t92.5 -49.5t63.5 -93t23.5 -144v-836h-368v731q0 70 -20.5 100.5t-70.5 30.5q-49 0 -69.5 -30.5t-20.5 -100.5v-731h-368z" />
<glyph unicode="i" horiz-adv-x="528" d="M80 0v1108h369v-1108h-369zM80 1188v274h369v-274h-369z" />
<glyph unicode="j" horiz-adv-x="528" d="M-59 -102q70 0 104.5 14t34.5 63v1133h369v-1180q0 -96 -27 -153.5t-73 -87t-108.5 -38.5t-134.5 -9q-41 0 -82.5 3t-82.5 7v248zM80 1188v274h369v-274h-369z" />
<glyph unicode="k" horiz-adv-x="1024" d="M63 0v1462h369v-737h4l205 383h393l-307 -457l346 -651h-393l-186 381l-62 -96v-285h-369z" />
<glyph unicode="l" horiz-adv-x="528" d="M80 0v1462h369v-1462h-369z" />
<glyph unicode="m" horiz-adv-x="1593" d="M63 0v1108h357v-135h4q35 82 103.5 123t164.5 41q115 0 175.5 -42t95.5 -128q43 94 117.5 132t160.5 38q61 0 113.5 -13.5t91.5 -48.5t61.5 -92t22.5 -147v-836h-369v731q0 70 -20.5 100.5t-69.5 30.5t-69.5 -30.5t-20.5 -100.5v-731h-369v731q0 70 -20.5 100.5 t-69.5 30.5t-69.5 -30.5t-20.5 -100.5v-731h-369z" />
<glyph unicode="n" d="M74 0v1108h356v-135h4q35 82 103.5 123t164.5 41q61 0 113.5 -13.5t91.5 -48.5t61.5 -92t22.5 -147v-836h-368v731q0 70 -20.5 100.5t-70.5 30.5q-49 0 -69.5 -30.5t-20.5 -100.5v-731h-368z" />
<glyph unicode="o" horiz-adv-x="1024" d="M41 555q0 109 15.5 213t64.5 186t142 132.5t249 50.5q162 0 256 -46.5t141 -126t60.5 -185t13.5 -226.5q0 -109 -15.5 -213t-64.5 -186t-142 -132.5t-249 -50.5q-162 0 -256 46t-141 126t-60.5 186.5t-13.5 225.5zM410 553q0 -104 4 -171t16 -105.5t31.5 -53t50.5 -14.5 t51.5 14.5t31.5 53t15 105.5t4 171t-4 172t-15 106.5t-31.5 53t-51.5 14.5t-50.5 -14.5t-31.5 -53t-16 -106.5t-4 -172z" />
<glyph unicode="p" d="M80 -360v1468h356v-152h4q66 180 252 181q186 0 259 -149.5t73 -457.5q0 -160 -24.5 -266t-68.5 -171.5t-106.5 -93.5t-140.5 -28t-140.5 34t-90.5 120h-4v-485h-369zM449 555q0 -90 4 -149.5t15 -95.5t31.5 -50t51.5 -14q33 0 53.5 14t31.5 50t15 95.5t4 149.5t-4 148.5 t-15 94.5t-31.5 50t-53.5 14q-31 0 -51.5 -14t-31.5 -50t-15 -94.5t-4 -148.5z" />
<glyph unicode="q" d="M41 530q0 307 72.5 457t259.5 150q98 0 157.5 -44t94.5 -137h4v152h356v-1468h-369v485h-4q-29 -86 -91 -120t-140 -34q-80 0 -143.5 28t-106.5 92.5t-66.5 172t-23.5 266.5zM410 555q0 -90 4 -149.5t15 -95.5t31.5 -50t53.5 -14q31 0 51.5 14t31.5 50t15 95.5t4 149.5 t-4 148.5t-15 94.5t-31.5 50t-51.5 14q-33 0 -53.5 -14t-31.5 -50t-15 -94.5t-4 -148.5z" />
<glyph unicode="r" horiz-adv-x="720" d="M63 0v1108h357v-176h4q31 100 98.5 152.5t149.5 52.5h59v-344q-43 8 -92 8q-98 0 -152.5 -43t-54.5 -154v-604h-369z" />
<glyph unicode="s" horiz-adv-x="948" d="M35 344h323q0 -33 6.5 -61.5t20.5 -46.5q29 -39 78 -39q43 0 74.5 24.5t31.5 69.5q0 49 -40 75.5t-99 47t-128 43t-128 61.5t-99 103.5t-40 169.5q0 74 26.5 136t81 109t137 74t195.5 27q416 0 416 -349h-320q0 72 -25.5 97.5t-72.5 25.5q-41 0 -67.5 -22.5t-26.5 -63.5 q0 -45 40 -69.5t99.5 -43t128 -39t128 -58t99 -102t39.5 -171.5q0 -80 -30.5 -148.5t-87 -117.5t-139.5 -77t-187 -28q-231 0 -332.5 96.5t-101.5 276.5z" />
<glyph unicode="t" horiz-adv-x="645" d="M4 860v248h123v326h369v-326h145v-248h-145v-528q0 -47 21.5 -66.5t66.5 -19.5h57v-246q-51 -6 -102.5 -9t-98.5 -3q-84 0 -143 9t-97 40t-55.5 86t-17.5 147v590h-123z" />
<glyph unicode="u" d="M74 272v836h368v-731q0 -70 20.5 -100.5t69.5 -30.5t70 30.5t21 100.5v731h368v-1108h-356v135h-4q-35 -82 -103.5 -123t-165.5 -41q-61 0 -113 13.5t-91 48.5t-61.5 93t-22.5 146z" />
<glyph unicode="v" horiz-adv-x="948" d="M-12 1108h381l104 -797h4l103 797h381l-271 -1108h-434z" />
<glyph unicode="w" horiz-adv-x="1515" d="M0 1108h356l93 -797h4l108 797h393l109 -797h4l92 797h357l-226 -1108h-418l-112 784h-4l-113 -784h-418z" />
<glyph unicode="x" horiz-adv-x="985" d="M-8 0l293 571l-281 537h369l110 -297l127 297h369l-279 -537l293 -571h-368l-129 334l-136 -334h-368z" />
<glyph unicode="y" horiz-adv-x="948" d="M-2 1108h381l113 -748h4l106 748h369l-297 -1145q-25 -96 -56.5 -158.5t-75.5 -99.5t-101.5 -51t-131.5 -14q-59 0 -109 2t-98 6v258q20 -4 41 -6t41 -2q35 0 58.5 10t38 23.5t20.5 27.5t6 23q0 12 -5 35.5t-11 45.5z" />
<glyph unicode="z" horiz-adv-x="909" d="M29 0v287l397 534h-379v287h823v-274l-413 -547h424v-287h-852z" />
<glyph unicode="{" horiz-adv-x="681" d="M-10 406v274q18 0 41.5 4t45 16.5t37 36t15.5 62.5v383q0 141 79 210.5t228 69.5h246v-258h-115q-33 0 -51 -12t-27.5 -30.5t-12.5 -41t-3 -43.5v-344q0 -57 -24.5 -93t-59.5 -56.5t-72.5 -28.5t-64.5 -10v-4q27 -2 64.5 -8.5t72.5 -28t59.5 -61.5t24.5 -109v-326 q0 -20 3 -42.5t12.5 -41t28 -31t50.5 -12.5h115v-258h-246q-150 0 -228.5 69.5t-78.5 211.5v364q0 47 -15.5 74t-37 41t-45 18.5t-41.5 4.5z" />
<glyph unicode="|" horiz-adv-x="454" d="M84 -29v1520h287v-1520h-287z" />
<glyph unicode="}" horiz-adv-x="681" d="M0 -119h115q33 0 51 12.5t27.5 31t12.5 41t3 42.5v344q0 57 24.5 93t59.5 56.5t72.5 29t64.5 10.5v4q-27 2 -64.5 8t-72.5 27.5t-59.5 61.5t-24.5 110v325q0 20 -3 43t-12.5 41.5t-28 30.5t-50.5 12h-115v258h246q150 0 228.5 -69.5t78.5 -210.5v-365q0 -45 15.5 -72.5 t37 -42t45 -18.5t41.5 -4v-274q-18 0 -41.5 -3.5t-45 -15.5t-37 -35.5t-15.5 -64.5v-383q0 -141 -79 -211t-228 -70h-246v258z" />
<glyph unicode="~" horiz-adv-x="1228" d="M141 555q35 78 99.5 127t156.5 49q57 0 117.5 -21.5t117 -48t109 -48t93.5 -21.5q51 0 94 39t86 106l73 -256q-53 -84 -116.5 -130t-139.5 -46q-61 0 -111 21.5t-101.5 48t-105.5 48t-126 21.5q-53 0 -98 -36.5t-74 -108.5z" />
<glyph unicode="&#xa1;" horiz-adv-x="643" d="M143 141l39 549h275l43 -549v-489h-357v489zM147 791v323h345v-323h-345z" />
<glyph unicode="&#xa2;" d="M76 528q0 164 26.5 275.5t76.5 181.5t123 104.5t167 47.5v155h164v-155q113 -10 182.5 -49t108.5 -99.5t52 -141.5t13 -173h-332q0 68 -6 109.5t-18 68.5q-23 47 -82 47q-31 0 -51.5 -15.5t-32.5 -55.5t-17.5 -106.5t-5.5 -168.5t5.5 -169t17.5 -105.5t32.5 -54 t51.5 -15.5q51 0 78.5 39t27.5 143v72h332q0 -131 -22.5 -223.5t-75.5 -151.5q-84 -92 -258 -117v-180h-164v180q-209 18 -301 150q-92 133 -92 407z" />
<glyph unicode="&#xa3;" d="M25 199q47 31 88 69.5t72.5 82.5t50 92.5t18.5 99.5q0 14 -3 27.5l-7 31.5h-219v213h139q-39 57 -63.5 125t-24.5 133q0 94 33.5 165t94 118t143.5 70.5t181 23.5q133 0 224.5 -27.5t147.5 -82t81 -132.5t27 -176h-332v33q0 80 -35 113.5t-82 33.5q-57 0 -86 -35.5 t-29 -82.5q0 -53 27 -123t74 -156h350v-213h-283q4 -18 7.5 -32.5t3.5 -28.5q0 -66 -51.5 -140.5t-139.5 -140.5l4 -4q16 6 33.5 10t34.5 4q29 0 56.5 -8t55 -17t54 -17.5t55.5 -8.5q39 0 87 19.5t126 60.5l102 -229q-76 -53 -158.5 -76t-170.5 -23q-47 0 -95.5 11.5 t-95.5 26t-95 25.5t-95 11q-57 0 -112.5 -17.5t-108.5 -43.5z" />
<glyph unicode="&#xa4;" d="M18 356l107 105q-74 115 -74 250q0 72 21.5 136t56.5 122l-111 108l148 146l113 -105q115 74 253 74q139 0 254 -74l113 105l148 -146l-111 -108q35 -57 56.5 -122t21.5 -136q0 -135 -74 -250l107 -105l-148 -157l-106 110q-115 -80 -261 -80q-145 0 -260 80l-106 -110z M326 711q0 -111 54 -167.5t152 -56.5t152.5 56.5t54.5 167.5t-54 167t-153 56q-98 0 -152 -56t-54 -167z" />
<glyph unicode="&#xa5;" d="M-10 1421h393l147 -532h5l147 532h393l-256 -614h154v-213h-244l-12 -35v-94h256v-213h-256v-252h-369v252h-256v213h256v94l-12 35h-244v213h154z" />
<glyph unicode="&#xa6;" horiz-adv-x="454" d="M84 -29v594h287v-594h-287zM84 897v594h287v-594h-287z" />
<glyph unicode="&#xa7;" d="M41 604q0 88 48 172t122 123q-61 41 -92 107.5t-31 130.5q0 162 109.5 258t337.5 96q215 0 324.5 -79t109.5 -243v-39h-320q0 76 -32.5 99.5t-75.5 23.5q-41 0 -69 -23.5t-28 -60.5q0 -47 43 -74.5t107.5 -51t139.5 -50t139.5 -71.5t107.5 -116t43 -183q0 -86 -35 -161 t-112 -134q66 -51 89 -125t23 -152q0 -100 -35.5 -169.5t-98 -113.5t-147.5 -63.5t-184 -19.5q-217 0 -331.5 91t-116.5 281v33h344q0 -92 26.5 -130t75.5 -38q53 0 76 34t23 81q0 61 -43 96t-107.5 60.5t-139.5 50t-139.5 67.5t-107.5 112t-43 181zM328 647q0 -29 16 -50.5 t64 -43.5l241 -111q57 41 72.5 72t15.5 66q0 45 -35.5 73.5t-86 50t-104.5 40t-89 42.5q-53 -45 -73.5 -80.5t-20.5 -58.5z" />
<glyph unicode="&#xa8;" horiz-adv-x="532" d="M-57 1204v287h274v-287h-274zM315 1204v287h275v-287h-275z" />
<glyph unicode="&#xa9;" horiz-adv-x="1638" d="M59 731q0 158 59.5 296t163 241.5t242 163t295.5 59.5q158 0 296 -59.5t241.5 -163t163 -241.5t59.5 -296t-59.5 -296t-163 -241.5t-241.5 -163t-296 -59.5t-296 59.5t-241.5 163t-163 241.5t-59.5 296zM322 731q0 -262 131 -398t366 -136q236 0 367 136t131 398 t-131 398.5t-367 136.5t-366.5 -136.5t-130.5 -398.5zM436 721q0 92 29 173t82 141.5t127 94t166 33.5q137 0 235.5 -76.5t122.5 -230.5h-213q-14 59 -52 89t-93 30q-92 0 -141.5 -65.5t-49.5 -176.5q0 -113 52.5 -180.5t144.5 -67.5q55 0 93 31t46 96h225 q-12 -78 -44.5 -136t-81 -98t-107.5 -60.5t-125 -20.5q-92 0 -169 32.5t-132 89t-85 134.5t-30 168z" />
<glyph unicode="&#xaa;" horiz-adv-x="720" d="M20 958q0 47 10.5 80t37 57.5t71.5 42t113 33.5l94 23q39 10 54.5 25.5t15.5 46.5q0 18 -15.5 31.5t-46.5 13.5q-35 0 -50 -16.5t-17 -57.5h-238q0 72 24.5 116t66.5 68.5t97.5 32.5t116.5 8q98 0 161 -12t98.5 -38t50 -65.5t14.5 -97.5v-325q0 -47 4 -82t18 -64h-268 q-8 18 -10 37t-6 41h-4q-18 -45 -62 -68q-43 -25 -98 -24q-131 0 -181.5 54t-50.5 140zM283 985q0 -23 15 -40t44 -17q41 0 57.5 27.5t16.5 82.5v66h-4q-10 -16 -32 -19.5t-48 -13.5q-29 -12 -39 -32.5t-10 -53.5z" />
<glyph unicode="&#xab;" horiz-adv-x="909" d="M100 367v450l320 213v-323l-172 -115l172 -115v-323zM489 367v450l320 213v-323l-172 -115l172 -115v-323z" />
<glyph unicode="&#xac;" horiz-adv-x="1228" d="M96 604v287h1037v-668h-287v381h-750z" />
<glyph unicode="&#xad;" horiz-adv-x="753" d="M57 436v312h639v-312h-639z" />
<glyph unicode="&#xae;" horiz-adv-x="1638" d="M59 731q0 158 59.5 296t163 241.5t242 163t295.5 59.5q158 0 296 -59.5t241.5 -163t163 -241.5t59.5 -296t-59.5 -296t-163 -241.5t-241.5 -163t-296 -59.5t-296 59.5t-241.5 163t-163 241.5t-59.5 296zM322 731q0 -262 131 -398t366 -136q236 0 367 136t131 398 t-131 398.5t-367 136.5t-366.5 -136.5t-130.5 -398.5zM530 371v774h256q82 0 146.5 -12.5t109.5 -41t70 -76.5t25 -122q0 -55 -15.5 -94t-38 -63.5t-49 -36t-51.5 -15.5l174 -313h-209l-164 293h-65v-293h-189zM719 815h100q55 0 86 22.5t31 69.5q0 43 -31 64.5t-86 21.5 h-100v-178z" />
<glyph unicode="&#xaf;" horiz-adv-x="532" d="M-57 1262v200h647v-200h-647z" />
<glyph unicode="&#xb0;" horiz-adv-x="819" d="M82 1122q0 68 25.5 127.5t70.5 104.5t104.5 70.5t127.5 25.5t127 -25.5t104 -70.5t70.5 -104.5t25.5 -127.5t-25.5 -127t-70.5 -104t-104.5 -70.5t-126.5 -25.5q-68 0 -127.5 25.5t-104.5 70.5t-70.5 104t-25.5 127zM270 1122q0 -59 40 -99t100 -40q59 0 99 40t40 99 t-40 99.5t-99 40.5t-99.5 -40.5t-40.5 -99.5z" />
<glyph unicode="&#xb1;" horiz-adv-x="1228" d="M96 0v287h1037v-287h-1037zM96 569v287h375v180h287v-180h375v-287h-375v-180h-287v180h-375z" />
<glyph unicode="&#xb2;" horiz-adv-x="757" d="M39 1139q0 80 11 135t46 94q35 41 98.5 61.5t180.5 20.5q109 0 175 -18.5t104 -51t51.5 -76.5t13.5 -94q0 -76 -33 -134t-86 -107l-145 -133l-35 -35t-27 -39h326v-189h-660q0 92 30 175t112 161l164 156q37 35 52 64.5t15 78.5q0 41 -18.5 59.5t-46.5 18.5 q-23 0 -44.5 -21.5t-21.5 -97.5v-28h-262z" />
<glyph unicode="&#xb3;" horiz-adv-x="757" d="M33 834h262q0 -16 5 -39t15 -39q18 -33 56 -33q43 0 55 23.5t12 89.5t-21.5 87t-68.5 21h-63v152h37q55 0 80.5 22.5t25.5 93.5q0 74 -61 74q-68 0 -68 -94h-250q0 131 78 197q39 33 96.5 47t149.5 14q100 0 163.5 -15.5t100.5 -46t51 -75.5t14 -105q0 -53 -28.5 -106 t-102.5 -70v-4q88 -12 121 -64.5t33 -123.5q0 -147 -82 -214t-264 -67q-184 0 -264 59.5t-82 215.5z" />
<glyph unicode="&#xb4;" horiz-adv-x="532" d="M117 1210l90 299h344l-197 -299h-237z" />
<glyph unicode="&#xb5;" d="M74 -360v1468h368v-731q0 -70 20.5 -100.5t69.5 -30.5t70 30.5t21 100.5v731h368v-1108h-356v135h-4q-33 -76 -72 -120t-86 -44q-18 0 -31 6v-337h-368z" />
<glyph unicode="&#xb6;" horiz-adv-x="1363" d="M68 1063q0 123 42 200.5t113.5 122t166.5 60.5t202 16h598v-1749h-287v1524h-194v-1524h-287v963q-66 0 -129.5 24.5t-113.5 72.5t-80.5 121t-30.5 169z" />
<glyph unicode="&#xb7;" horiz-adv-x="532" d="M63 561q0 86 58.5 144.5t144.5 58.5t144.5 -58.5t58.5 -144.5t-58.5 -144.5t-144.5 -58.5t-144.5 58.5t-58.5 144.5z" />
<glyph unicode="&#xb8;" horiz-adv-x="532" d="M33 -430l45 115q72 -33 139 -33q47 0 74.5 20.5t27.5 48.5q0 41 -28.5 53.5t-54.5 12.5q-16 0 -31 -4t-29 -10l-51 43l104 196h123l-67 -129q27 10 59 11q74 0 131 -39t57 -123q0 -102 -72.5 -152.5t-193.5 -50.5q-59 0 -122.5 11t-110.5 30z" />
<glyph unicode="&#xb9;" horiz-adv-x="681" d="M45 1151v164q115 2 169 29.5t83 105.5h213v-877h-287v578h-178z" />
<glyph unicode="&#xba;" horiz-adv-x="720" d="M20 1112q0 96 15.5 162.5t54.5 107.5t104.5 60.5t165.5 19.5t166 -19.5t105 -60.5t54 -107.5t15 -162.5q0 -94 -15 -160.5t-54 -108.5t-104.5 -60.5t-166.5 -18.5q-100 0 -165.5 18.5t-104.5 60.5t-54.5 108.5t-15.5 160.5zM295 1112q0 -111 13.5 -147.5t51.5 -36.5 q41 0 53.5 36.5t12.5 147.5t-12.5 148.5t-53.5 37.5q-39 0 -52 -37.5t-13 -148.5z" />
<glyph unicode="&#xbb;" horiz-adv-x="909" d="M100 154v323l172 115l-172 115v323l320 -213v-450zM489 154v323l173 115l-173 115v323l320 -213v-450z" />
<glyph unicode="&#xbc;" horiz-adv-x="1667" d="M20 1151v164q115 2 169.5 29.5t82.5 105.5h213v-877h-286v578h-179zM299 -63l793 1548h225l-793 -1548h-225zM934 147v189l299 526h321v-526h82v-189h-82v-147h-249v147h-371zM1147 336h158v268h-5z" />
<glyph unicode="&#xbd;" horiz-adv-x="1667" d="M20 1151v164q115 2 169.5 29.5t82.5 105.5h213v-877h-286v578h-179zM229 -63l793 1548h225l-792 -1548h-226zM965 565q0 80 11 135.5t46 94.5q35 41 98.5 61.5t179.5 20.5q109 0 175.5 -18.5t104.5 -51.5t51.5 -77t13.5 -93q0 -76 -33 -134.5t-86 -107.5l-146 -133 l-34.5 -34.5t-26.5 -39.5h326v-188h-660q0 92 29.5 175t111.5 161l164 156q37 35 52.5 64.5t15.5 78.5q0 41 -18.5 59.5t-47.5 18.5q-23 0 -44 -21.5t-21 -97.5v-29h-262z" />
<glyph unicode="&#xbe;" horiz-adv-x="1667" d="M31 834h262q0 -16 5 -39t15 -39q18 -33 56 -33q43 0 55 23.5t12 89.5t-21.5 87t-68.5 21h-63v152h36q55 0 81 22.5t26 93.5q0 74 -61 74q-68 0 -68 -94h-250q0 131 78 197q39 33 96.5 47t149.5 14q100 0 163.5 -15.5t100.5 -46t51 -75.5t14 -105q0 -53 -28.5 -106 t-102.5 -70v-4q88 -12 121 -64.5t33 -123.5q0 -147 -82 -214t-264 -67q-184 0 -264 59.5t-82 215.5zM375 -63l792 1548h226l-793 -1548h-225zM934 147v189l299 526h321v-526h82v-189h-82v-147h-249v147h-371zM1122 336h158v268h-4z" />
<glyph unicode="&#xbf;" horiz-adv-x="1024" d="M66 29q0 84 21.5 157.5t74.5 132.5l149 170q29 33 38 84.5t9 116.5h332v-57q0 -117 -18.5 -189.5t-69.5 -132.5l-121 -137q-41 -47 -50 -95t-9 -85q0 -59 22.5 -96t69.5 -37q25 0 43 9t30.5 35.5t19.5 77t7 132.5h344q0 -135 -29.5 -229.5t-86.5 -151.5 q-59 -59 -144.5 -85t-197.5 -26q-223 0 -328.5 110.5t-105.5 295.5zM352 791v323h344v-323h-344z" />
<glyph unicode="&#xc0;" horiz-adv-x="1138" d="M-27 0l357 1462h479l356 -1462h-405l-39 256h-303l-39 -256h-406zM293 1863h344l90 -299h-237zM463 543h213l-105 620h-4z" />
<glyph unicode="&#xc1;" horiz-adv-x="1138" d="M-27 0l357 1462h479l356 -1462h-405l-39 256h-303l-39 -256h-406zM408 1564l90 299h344l-197 -299h-237zM463 543h213l-105 620h-4z" />
<glyph unicode="&#xc2;" horiz-adv-x="1138" d="M-27 0l357 1462h479l356 -1462h-405l-39 256h-303l-39 -256h-406zM234 1564l127 299h393l127 -299h-250l-74 164l-73 -164h-250zM463 543h213l-105 620h-4z" />
<glyph unicode="&#xc3;" horiz-adv-x="1138" d="M-27 0l357 1462h479l356 -1462h-405l-39 256h-303l-39 -256h-406zM219 1577q18 141 65.5 213.5t135.5 72.5q33 0 66.5 -9t66.5 -21q33 -10 60.5 -20.5t50.5 -10.5t37 13.5t18 47.5h176q-16 -154 -73.5 -220t-131.5 -66q-41 0 -76.5 9t-66.5 21.5t-56.5 21.5t-47.5 9 q-23 0 -35.5 -17.5t-12.5 -43.5h-176zM463 543h213l-105 620h-4z" />
<glyph unicode="&#xc4;" horiz-adv-x="1138" d="M-27 0l357 1462h479l356 -1462h-405l-39 256h-303l-39 -256h-406zM234 1558v287h274v-287h-274zM463 543h213l-105 620h-4zM606 1558v287h275v-287h-275z" />
<glyph unicode="&#xc5;" horiz-adv-x="1138" d="M-27 0l357 1462h479l356 -1462h-405l-39 256h-303l-39 -256h-406zM342 1764q0 47 18.5 88t49 71.5t71.5 49t88 18.5t88 -18.5t72 -49t49.5 -71.5t18.5 -88t-18.5 -88t-49.5 -72t-72 -49.5t-88 -18.5t-88 18.5t-71.5 49.5t-49 72t-18.5 88zM463 543h213l-105 620h-4z M477 1764q0 -39 26.5 -65.5t65.5 -26.5t65.5 26.5t26.5 65.5t-26.5 65.5t-65.5 26.5t-65.5 -26.5t-26.5 -65.5z" />
<glyph unicode="&#xc6;" horiz-adv-x="1593" d="M-27 0l553 1462h1012v-311h-434v-250h401v-299h-401v-291h457v-311h-813v244h-295l-74 -244h-406zM541 543h207v661h-5z" />
<glyph unicode="&#xc7;" horiz-adv-x="1099" d="M47 731q0 209 25.5 354.5t87 235.5t162 130t247.5 40q129 0 219.5 -33t146.5 -93t81.5 -145t25.5 -192v-92h-368v82q0 125 -24.5 170t-80.5 45q-43 0 -68.5 -22.5t-38.5 -80t-17.5 -154.5t-4.5 -245q0 -147 4.5 -244.5t17.5 -155t38.5 -80t68.5 -22.5q35 0 57.5 17.5 t35 58.5t17.5 109.5t5 173.5h369v-109q0 -143 -37 -238.5t-97.5 -153.5t-139.5 -84t-163 -32l-47 -88q27 10 60 11q74 0 131 -39t57 -123q0 -102 -72.5 -152.5t-193.5 -50.5q-59 0 -122.5 11t-111.5 30l45 115q72 -33 140 -33q47 0 74.5 20.5t27.5 48.5q0 41 -28.5 53.5 t-55.5 12.5q-16 0 -30.5 -4t-28.5 -10l-51 43l84 159q-137 10 -224.5 58.5t-136.5 139.5t-67.5 229.5t-18.5 328.5z" />
<glyph unicode="&#xc8;" horiz-adv-x="1024" d="M90 0v1462h866v-311h-485v-250h455v-299h-455v-291h504v-311h-885zM248 1863h344l90 -299h-237z" />
<glyph unicode="&#xc9;" horiz-adv-x="1024" d="M90 0v1462h866v-311h-485v-250h455v-299h-455v-291h504v-311h-885zM363 1564l90 299h344l-197 -299h-237z" />
<glyph unicode="&#xca;" horiz-adv-x="1024" d="M90 0v1462h866v-311h-485v-250h455v-299h-455v-291h504v-311h-885zM189 1564l127 299h393l127 -299h-250l-74 164l-73 -164h-250z" />
<glyph unicode="&#xcb;" horiz-adv-x="1024" d="M90 0v1462h866v-311h-485v-250h455v-299h-455v-291h504v-311h-885zM189 1558v287h274v-287h-274zM561 1558v287h275v-287h-275z" />
<glyph unicode="&#xcc;" horiz-adv-x="532" d="M-10 1863h344l90 -299h-237zM76 0v1462h381v-1462h-381z" />
<glyph unicode="&#xcd;" horiz-adv-x="532" d="M76 0v1462h381v-1462h-381zM105 1564l90 299h344l-197 -299h-237z" />
<glyph unicode="&#xce;" horiz-adv-x="532" d="M-69 1564l127 299h393l127 -299h-250l-74 164l-73 -164h-250zM76 0v1462h381v-1462h-381z" />
<glyph unicode="&#xcf;" horiz-adv-x="532" d="M-69 1558v287h274v-287h-274zM76 0v1462h381v-1462h-381zM303 1558v287h275v-287h-275z" />
<glyph unicode="&#xd0;" horiz-adv-x="1175" d="M-18 631v258h108v573h553q166 0 258 -60.5t138 -161.5t56.5 -233.5t10.5 -275.5t-10.5 -275t-56.5 -233.5t-138 -162t-258 -60.5h-553v631h-108zM471 274h76q55 0 88 15.5t50 64.5t22.5 139.5t5.5 237.5t-5.5 237.5t-22.5 139.5t-50 64.5t-88 15.5h-76v-299h107v-258 h-107v-357z" />
<glyph unicode="&#xd1;" horiz-adv-x="1212" d="M90 0v1462h426l246 -901h4v901h356v-1462h-417l-254 903h-5v-903h-356zM268 1577q18 141 65.5 213.5t135.5 72.5q33 0 66.5 -9t66.5 -21q33 -10 60.5 -20.5t50.5 -10.5t37 13.5t18 47.5h176q-16 -154 -73.5 -220t-131.5 -66q-41 0 -76.5 9t-66.5 21.5t-56.5 21.5t-47.5 9 q-23 0 -35.5 -17.5t-12.5 -43.5h-176z" />
<glyph unicode="&#xd2;" horiz-adv-x="1138" d="M47 731q0 205 26.5 349.5t88 235.5t162 133t245.5 42t245.5 -42t162 -133t88.5 -235.5t27 -349.5t-27 -349t-88.5 -235.5t-161.5 -133.5t-246 -42q-145 0 -245.5 42t-162 133.5t-88 235.5t-26.5 349zM305 1863h344l90 -299h-237zM440 731q0 -147 4.5 -244.5t17.5 -155 t38.5 -80t68.5 -22.5t69 22.5t39 80t17 155t4 244.5t-4 244.5t-17 155t-39 80t-69 22.5t-68.5 -22.5t-38.5 -80t-17.5 -155t-4.5 -244.5z" />
<glyph unicode="&#xd3;" horiz-adv-x="1138" d="M47 731q0 205 26.5 349.5t88 235.5t162 133t245.5 42t245.5 -42t162 -133t88.5 -235.5t27 -349.5t-27 -349t-88.5 -235.5t-161.5 -133.5t-246 -42q-145 0 -245.5 42t-162 133.5t-88 235.5t-26.5 349zM420 1564l90 299h344l-197 -299h-237zM440 731q0 -147 4.5 -244.5 t17.5 -155t38.5 -80t68.5 -22.5t69 22.5t39 80t17 155t4 244.5t-4 244.5t-17 155t-39 80t-69 22.5t-68.5 -22.5t-38.5 -80t-17.5 -155t-4.5 -244.5z" />
<glyph unicode="&#xd4;" horiz-adv-x="1138" d="M47 731q0 205 26.5 349.5t88 235.5t162 133t245.5 42t245.5 -42t162 -133t88.5 -235.5t27 -349.5t-27 -349t-88.5 -235.5t-161.5 -133.5t-246 -42q-145 0 -245.5 42t-162 133.5t-88 235.5t-26.5 349zM246 1564l127 299h393l127 -299h-250l-74 164l-73 -164h-250zM440 731 q0 -147 4.5 -244.5t17.5 -155t38.5 -80t68.5 -22.5t69 22.5t39 80t17 155t4 244.5t-4 244.5t-17 155t-39 80t-69 22.5t-68.5 -22.5t-38.5 -80t-17.5 -155t-4.5 -244.5z" />
<glyph unicode="&#xd5;" horiz-adv-x="1138" d="M47 731q0 205 26.5 349.5t88 235.5t162 133t245.5 42t245.5 -42t162 -133t88.5 -235.5t27 -349.5t-27 -349t-88.5 -235.5t-161.5 -133.5t-246 -42q-145 0 -245.5 42t-162 133.5t-88 235.5t-26.5 349zM231 1577q18 141 65.5 213.5t135.5 72.5q33 0 66.5 -9t66.5 -21 q33 -10 60.5 -20.5t50.5 -10.5t37 13.5t18 47.5h176q-16 -154 -73.5 -220t-131.5 -66q-41 0 -76.5 9t-66.5 21.5t-56.5 21.5t-47.5 9q-23 0 -35.5 -17.5t-12.5 -43.5h-176zM440 731q0 -147 4.5 -244.5t17.5 -155t38.5 -80t68.5 -22.5t69 22.5t39 80t17 155t4 244.5t-4 244.5 t-17 155t-39 80t-69 22.5t-68.5 -22.5t-38.5 -80t-17.5 -155t-4.5 -244.5z" />
<glyph unicode="&#xd6;" horiz-adv-x="1138" d="M47 731q0 205 26.5 349.5t88 235.5t162 133t245.5 42t245.5 -42t162 -133t88.5 -235.5t27 -349.5t-27 -349t-88.5 -235.5t-161.5 -133.5t-246 -42q-145 0 -245.5 42t-162 133.5t-88 235.5t-26.5 349zM246 1558v287h274v-287h-274zM440 731q0 -147 4.5 -244.5t17.5 -155 t38.5 -80t68.5 -22.5t69 22.5t39 80t17 155t4 244.5t-4 244.5t-17 155t-39 80t-69 22.5t-68.5 -22.5t-38.5 -80t-17.5 -155t-4.5 -244.5zM618 1558v287h275v-287h-275z" />
<glyph unicode="&#xd7;" horiz-adv-x="1228" d="M119 225l293 293l-293 293l203 203l292 -293l293 293l203 -203l-293 -293l293 -293l-203 -202l-293 292l-292 -292z" />
<glyph unicode="&#xd8;" horiz-adv-x="1138" d="M47 731q0 205 26.5 349.5t88 235.5t162 133t245.5 42q121 0 213 -29l47 119l132 -51l-54 -135q100 -84 142.5 -245t42.5 -419q0 -205 -27 -349t-88.5 -235.5t-161.5 -133.5t-246 -42q-121 0 -213 29l-47 -119l-131 51l55 140q-102 82 -144 242.5t-42 416.5zM440 600h4 l222 565q-14 37 -38 52.5t-59 15.5q-43 0 -68.5 -22.5t-38.5 -80t-17.5 -154.5t-4.5 -245v-131zM473 299q14 -39 38 -54.5t58 -15.5q43 0 69 22.5t39 80t17 155t4 244.5v131h-4z" />
<glyph unicode="&#xd9;" horiz-adv-x="1138" d="M74 504v958h381v-1054q0 -106 30.5 -142.5t83.5 -36.5t84 36t31 143v1054h381v-958q0 -154 -33 -256.5t-95.5 -163.5t-154.5 -87t-213 -26q-119 0 -212 26t-155.5 87t-95 163.5t-32.5 256.5zM293 1863h344l90 -299h-237z" />
<glyph unicode="&#xda;" horiz-adv-x="1138" d="M74 504v958h381v-1054q0 -106 30.5 -142.5t83.5 -36.5t84 36t31 143v1054h381v-958q0 -154 -33 -256.5t-95.5 -163.5t-154.5 -87t-213 -26q-119 0 -212 26t-155.5 87t-95 163.5t-32.5 256.5zM408 1564l90 299h344l-197 -299h-237z" />
<glyph unicode="&#xdb;" horiz-adv-x="1138" d="M74 504v958h381v-1054q0 -106 30.5 -142.5t83.5 -36.5t84 36t31 143v1054h381v-958q0 -154 -33 -256.5t-95.5 -163.5t-154.5 -87t-213 -26q-119 0 -212 26t-155.5 87t-95 163.5t-32.5 256.5zM234 1564l127 299h393l127 -299h-250l-74 164l-73 -164h-250z" />
<glyph unicode="&#xdc;" horiz-adv-x="1138" d="M74 504v958h381v-1054q0 -106 30.5 -142.5t83.5 -36.5t84 36t31 143v1054h381v-958q0 -154 -33 -256.5t-95.5 -163.5t-154.5 -87t-213 -26q-119 0 -212 26t-155.5 87t-95 163.5t-32.5 256.5zM234 1558v287h274v-287h-274zM606 1558v287h275v-287h-275z" />
<glyph unicode="&#xdd;" d="M-31 1462h418l143 -510h5l143 510h418l-373 -887v-575h-381v575zM383 1564l90 299h344l-197 -299h-237z" />
<glyph unicode="&#xde;" horiz-adv-x="1099" d="M76 0v1462h381v-245h190q109 0 188.5 -35t132 -95.5t77 -142.5t24.5 -178q0 -225 -123 -340t-356 -115h-133v-311h-381zM457 586h71q72 0 110 43t38 135q0 178 -148 178h-71v-356z" />
<glyph unicode="&#xdf;" d="M63 0v1044q0 125 31 211t92.5 138.5t152.5 75t210 22.5q446 0 446 -385q0 -49 -11 -97t-34.5 -86t-58.5 -63.5t-84 -32.5v-4q66 -10 107.5 -45t66.5 -85t34 -111.5t9 -128.5q0 -125 -20.5 -214t-65.5 -144.5t-117.5 -81t-177.5 -25.5q-39 0 -75 2t-72 10v248l24 -8t27 -4 q29 0 49 10t33.5 37.5t19.5 77t6 124.5q0 111 -27.5 155t-86.5 44h-41v248h30q53 0 75 39t22 108q0 86 -29 125t-78 39t-74.5 -36t-25.5 -115v-1092h-357z" />
<glyph unicode="&#xe0;" horiz-adv-x="1024" d="M29 297q0 78 15 135t50 99t94.5 72t147.5 50l145 35q59 14 84 42t25 79q0 102 -94 102q-53 0 -78 -29.5t-27 -117.5h-319q0 119 43 192.5t106.5 113.5t137 53.5t137.5 13.5q96 0 177 -15.5t139 -55.5t90 -108.5t32 -177.5v-540q0 -78 6 -137.5t29 -102.5h-357 q-10 29 -14 59.5t-8 65.5h-4q-31 -74 -98.5 -114t-151.5 -40q-82 0 -140.5 24.5t-95.5 67.5t-54 102.5t-17 131.5zM248 1509h344l90 -299h-237zM385 340q0 -55 24.5 -88t65.5 -33q61 0 88 45t27 137v134h-4q-16 -23 -50 -28t-75 -24q-43 -20 -59.5 -54t-16.5 -89z" />
<glyph unicode="&#xe1;" horiz-adv-x="1024" d="M29 297q0 78 15 135t50 99t94.5 72t147.5 50l145 35q59 14 84 42t25 79q0 102 -94 102q-53 0 -78 -29.5t-27 -117.5h-319q0 119 43 192.5t106.5 113.5t137 53.5t137.5 13.5q96 0 177 -15.5t139 -55.5t90 -108.5t32 -177.5v-540q0 -78 6 -137.5t29 -102.5h-357 q-10 29 -14 59.5t-8 65.5h-4q-31 -74 -98.5 -114t-151.5 -40q-82 0 -140.5 24.5t-95.5 67.5t-54 102.5t-17 131.5zM363 1210l90 299h344l-197 -299h-237zM385 340q0 -55 24.5 -88t65.5 -33q61 0 88 45t27 137v134h-4q-16 -23 -50 -28t-75 -24q-43 -20 -59.5 -54t-16.5 -89z " />
<glyph unicode="&#xe2;" horiz-adv-x="1024" d="M29 297q0 78 15 135t50 99t94.5 72t147.5 50l145 35q59 14 84 42t25 79q0 102 -94 102q-53 0 -78 -29.5t-27 -117.5h-319q0 119 43 192.5t106.5 113.5t137 53.5t137.5 13.5q96 0 177 -15.5t139 -55.5t90 -108.5t32 -177.5v-540q0 -78 6 -137.5t29 -102.5h-357 q-10 29 -14 59.5t-8 65.5h-4q-31 -74 -98.5 -114t-151.5 -40q-82 0 -140.5 24.5t-95.5 67.5t-54 102.5t-17 131.5zM189 1210l127 299h393l127 -299h-250l-74 164l-73 -164h-250zM385 340q0 -55 24.5 -88t65.5 -33q61 0 88 45t27 137v134h-4q-16 -23 -50 -28t-75 -24 q-43 -20 -59.5 -54t-16.5 -89z" />
<glyph unicode="&#xe3;" horiz-adv-x="1024" d="M29 297q0 78 15 135t50 99t94.5 72t147.5 50l145 35q59 14 84 42t25 79q0 102 -94 102q-53 0 -78 -29.5t-27 -117.5h-319q0 119 43 192.5t106.5 113.5t137 53.5t137.5 13.5q96 0 177 -15.5t139 -55.5t90 -108.5t32 -177.5v-540q0 -78 6 -137.5t29 -102.5h-357 q-10 29 -14 59.5t-8 65.5h-4q-31 -74 -98.5 -114t-151.5 -40q-82 0 -140.5 24.5t-95.5 67.5t-54 102.5t-17 131.5zM174 1223q18 141 65.5 213.5t135.5 72.5q33 0 66.5 -9t66.5 -21q33 -10 60.5 -20.5t50.5 -10.5t37 13.5t18 47.5h176q-16 -154 -73.5 -220t-131.5 -66 q-41 0 -76.5 9t-66.5 21.5t-56.5 21.5t-47.5 9q-23 0 -35.5 -17.5t-12.5 -43.5h-176zM385 340q0 -55 24.5 -88t65.5 -33q61 0 88 45t27 137v134h-4q-16 -23 -50 -28t-75 -24q-43 -20 -59.5 -54t-16.5 -89z" />
<glyph unicode="&#xe4;" horiz-adv-x="1024" d="M29 297q0 78 15 135t50 99t94.5 72t147.5 50l145 35q59 14 84 42t25 79q0 102 -94 102q-53 0 -78 -29.5t-27 -117.5h-319q0 119 43 192.5t106.5 113.5t137 53.5t137.5 13.5q96 0 177 -15.5t139 -55.5t90 -108.5t32 -177.5v-540q0 -78 6 -137.5t29 -102.5h-357 q-10 29 -14 59.5t-8 65.5h-4q-31 -74 -98.5 -114t-151.5 -40q-82 0 -140.5 24.5t-95.5 67.5t-54 102.5t-17 131.5zM189 1204v287h274v-287h-274zM385 340q0 -55 24.5 -88t65.5 -33q61 0 88 45t27 137v134h-4q-16 -23 -50 -28t-75 -24q-43 -20 -59.5 -54t-16.5 -89zM561 1204 v287h275v-287h-275z" />
<glyph unicode="&#xe5;" horiz-adv-x="1024" d="M29 297q0 78 15 135t50 99t94.5 72t147.5 50l145 35q59 14 84 42t25 79q0 102 -94 102q-53 0 -78 -29.5t-27 -117.5h-319q0 119 43 192.5t106.5 113.5t137 53.5t137.5 13.5q96 0 177 -15.5t139 -55.5t90 -108.5t32 -177.5v-540q0 -78 6 -137.5t29 -102.5h-357 q-10 29 -14 59.5t-8 65.5h-4q-31 -74 -98.5 -114t-151.5 -40q-82 0 -140.5 24.5t-95.5 67.5t-54 102.5t-17 131.5zM285 1440q0 47 18.5 88t49 71.5t71.5 49t88 18.5t88 -18.5t72 -49t49.5 -71.5t18.5 -88t-18.5 -88t-49.5 -72t-72 -49.5t-88 -18.5t-88 18.5t-71.5 49.5 t-49 72t-18.5 88zM385 340q0 -55 24.5 -88t65.5 -33q61 0 88 45t27 137v134h-4q-16 -23 -50 -28t-75 -24q-43 -20 -59.5 -54t-16.5 -89zM420 1440q0 -39 26.5 -65.5t65.5 -26.5t65.5 26.5t26.5 65.5t-26.5 65.5t-65.5 26.5t-65.5 -26.5t-26.5 -65.5z" />
<glyph unicode="&#xe6;" horiz-adv-x="1515" d="M41 297q0 78 15.5 135t50 99t94 72t147.5 50l146 35q59 14 82.5 42t23.5 79q0 102 -92 102q-53 0 -77.5 -29.5t-27.5 -117.5h-319q0 119 37 192.5t97.5 113.5t136 53.5t153.5 13.5q74 0 153.5 -31t133.5 -92q47 66 113.5 94.5t174.5 28.5q104 0 180 -27t126.5 -89.5 t75 -163.5t24.5 -253v-112h-545v-146q0 -90 31 -119.5t67 -29.5q49 0 76 38.5t27 153.5h332q-2 -100 -26 -178t-77 -131t-130 -81t-175 -28q-88 0 -151.5 11.5t-107.5 35t-73.5 59.5t-52.5 83q-57 -111 -139 -150t-197 -39q-82 0 -140 24.5t-95 67.5t-54.5 102.5 t-17.5 131.5zM397 340q0 -55 24.5 -88t65.5 -33q59 0 86 45t27 137v134h-4q-14 -23 -48 -28t-75 -24q-43 -20 -59.5 -54t-16.5 -89zM944 692h201v49q0 88 -21.5 129t-81.5 41q-55 0 -76.5 -41t-21.5 -129v-49z" />
<glyph unicode="&#xe7;" horiz-adv-x="985" d="M41 535q0 197 39 315.5t105.5 182t156.5 84t195 20.5q123 0 203.5 -34t129 -94.5t67.5 -145.5t19 -189h-331q0 68 -6.5 109.5t-18.5 68.5q-23 47 -82 47q-31 0 -52.5 -15.5t-33.5 -55.5t-17 -106.5t-5 -168.5t5 -169t17 -105.5t33.5 -54t52.5 -15.5q51 0 79 39t28 143v72 h331q0 -131 -22.5 -223.5t-75.5 -151.5q-90 -98 -274 -115l-47 -90q27 10 59 11q74 0 131 -39t57 -123q0 -102 -72.5 -152.5t-193.5 -50.5q-59 0 -122.5 11t-110.5 30l45 115q72 -33 139 -33q47 0 74.5 20.5t27.5 48.5q0 41 -28.5 53.5t-55.5 12.5q-16 0 -30.5 -4t-28.5 -10 l-51 43l84 155q-94 6 -172 32t-133.5 88.5t-85 170t-29.5 273.5z" />
<glyph unicode="&#xe8;" horiz-adv-x="985" d="M41 553q0 160 26.5 270.5t84 180t146.5 101.5t214 32q111 0 193.5 -27t139 -89.5t84 -163.5t27.5 -253v-112h-546v-146q0 -90 30.5 -119.5t69.5 -29.5q49 0 76.5 38.5t27.5 153.5h332q-2 -201 -103.5 -309.5t-330.5 -108.5q-133 0 -223 32t-145.5 101.5t-79 180 t-23.5 268.5zM229 1509h344l90 -299h-237zM410 692h202v49q0 88 -21.5 129t-80.5 41q-57 0 -78.5 -41t-21.5 -129v-49z" />
<glyph unicode="&#xe9;" horiz-adv-x="985" d="M41 553q0 160 26.5 270.5t84 180t146.5 101.5t214 32q111 0 193.5 -27t139 -89.5t84 -163.5t27.5 -253v-112h-546v-146q0 -90 30.5 -119.5t69.5 -29.5q49 0 76.5 38.5t27.5 153.5h332q-2 -201 -103.5 -309.5t-330.5 -108.5q-133 0 -223 32t-145.5 101.5t-79 180 t-23.5 268.5zM344 1210l90 299h344l-197 -299h-237zM410 692h202v49q0 88 -21.5 129t-80.5 41q-57 0 -78.5 -41t-21.5 -129v-49z" />
<glyph unicode="&#xea;" horiz-adv-x="985" d="M41 553q0 160 26.5 270.5t84 180t146.5 101.5t214 32q111 0 193.5 -27t139 -89.5t84 -163.5t27.5 -253v-112h-546v-146q0 -90 30.5 -119.5t69.5 -29.5q49 0 76.5 38.5t27.5 153.5h332q-2 -201 -103.5 -309.5t-330.5 -108.5q-133 0 -223 32t-145.5 101.5t-79 180 t-23.5 268.5zM170 1210l127 299h393l127 -299h-250l-74 164l-73 -164h-250zM410 692h202v49q0 88 -21.5 129t-80.5 41q-57 0 -78.5 -41t-21.5 -129v-49z" />
<glyph unicode="&#xeb;" horiz-adv-x="985" d="M41 553q0 160 26.5 270.5t84 180t146.5 101.5t214 32q111 0 193.5 -27t139 -89.5t84 -163.5t27.5 -253v-112h-546v-146q0 -90 30.5 -119.5t69.5 -29.5q49 0 76.5 38.5t27.5 153.5h332q-2 -201 -103.5 -309.5t-330.5 -108.5q-133 0 -223 32t-145.5 101.5t-79 180 t-23.5 268.5zM170 1204v287h274v-287h-274zM410 692h202v49q0 88 -21.5 129t-80.5 41q-57 0 -78.5 -41t-21.5 -129v-49zM542 1204v287h275v-287h-275z" />
<glyph unicode="&#xec;" horiz-adv-x="528" d="M-12 1509h344l90 -299h-237zM80 0v1108h369v-1108h-369z" />
<glyph unicode="&#xed;" horiz-adv-x="528" d="M80 0v1108h369v-1108h-369zM103 1210l90 299h344l-197 -299h-237z" />
<glyph unicode="&#xee;" horiz-adv-x="528" d="M-71 1210l127 299h393l127 -299h-250l-74 164l-73 -164h-250zM80 0v1108h369v-1108h-369z" />
<glyph unicode="&#xef;" horiz-adv-x="528" d="M-71 1204v287h274v-287h-274zM80 0v1108h369v-1108h-369zM301 1204v287h275v-287h-275z" />
<glyph unicode="&#xf0;" horiz-adv-x="1024" d="M41 528q0 164 28.5 271.5t78 171t112 89t129.5 25.5q47 0 90 -14t78 -37l4 4q-23 41 -65.5 95.5t-96.5 113.5l-172 -92l-94 141l146 78q-59 59 -103 96l223 168q39 -31 75 -61.5t67 -60.5l164 88l90 -142l-133 -71q154 -174 237.5 -372t83.5 -433q0 -127 -15.5 -240 t-64.5 -195.5t-142 -131t-249 -48.5q-133 0 -223 31t-145.5 98.5t-79 173t-23.5 254.5zM410 553q0 -104 4 -171t16 -105.5t31.5 -53t50.5 -14.5t51.5 14.5t31.5 53t15 105.5t4 171q0 86 -4 143.5t-15 91t-31.5 47t-51.5 13.5t-50.5 -13.5t-31.5 -47t-16 -91t-4 -143.5z" />
<glyph unicode="&#xf1;" d="M74 0v1108h356v-135h4q35 82 103.5 123t164.5 41q61 0 113.5 -13.5t91.5 -48.5t61.5 -92t22.5 -147v-836h-368v731q0 70 -20.5 100.5t-70.5 30.5q-49 0 -69.5 -30.5t-20.5 -100.5v-731h-368zM194 1223q18 141 65.5 213.5t135.5 72.5q33 0 66.5 -9t66.5 -21 q33 -10 60.5 -20.5t50.5 -10.5t37 13.5t18 47.5h176q-16 -154 -73.5 -220t-131.5 -66q-41 0 -76.5 9t-66.5 21.5t-56.5 21.5t-47.5 9q-23 0 -35.5 -17.5t-12.5 -43.5h-176z" />
<glyph unicode="&#xf2;" horiz-adv-x="1024" d="M41 555q0 109 15.5 213t64.5 186t142 132.5t249 50.5q162 0 256 -46.5t141 -126t60.5 -185t13.5 -226.5q0 -109 -15.5 -213t-64.5 -186t-142 -132.5t-249 -50.5q-162 0 -256 46t-141 126t-60.5 186.5t-13.5 225.5zM248 1509h344l90 -299h-237zM410 553q0 -104 4 -171 t16 -105.5t31.5 -53t50.5 -14.5t51.5 14.5t31.5 53t15 105.5t4 171t-4 172t-15 106.5t-31.5 53t-51.5 14.5t-50.5 -14.5t-31.5 -53t-16 -106.5t-4 -172z" />
<glyph unicode="&#xf3;" horiz-adv-x="1024" d="M41 555q0 109 15.5 213t64.5 186t142 132.5t249 50.5q162 0 256 -46.5t141 -126t60.5 -185t13.5 -226.5q0 -109 -15.5 -213t-64.5 -186t-142 -132.5t-249 -50.5q-162 0 -256 46t-141 126t-60.5 186.5t-13.5 225.5zM363 1210l90 299h344l-197 -299h-237zM410 553 q0 -104 4 -171t16 -105.5t31.5 -53t50.5 -14.5t51.5 14.5t31.5 53t15 105.5t4 171t-4 172t-15 106.5t-31.5 53t-51.5 14.5t-50.5 -14.5t-31.5 -53t-16 -106.5t-4 -172z" />
<glyph unicode="&#xf4;" horiz-adv-x="1024" d="M41 555q0 109 15.5 213t64.5 186t142 132.5t249 50.5q162 0 256 -46.5t141 -126t60.5 -185t13.5 -226.5q0 -109 -15.5 -213t-64.5 -186t-142 -132.5t-249 -50.5q-162 0 -256 46t-141 126t-60.5 186.5t-13.5 225.5zM189 1210l127 299h393l127 -299h-250l-74 164l-73 -164 h-250zM410 553q0 -104 4 -171t16 -105.5t31.5 -53t50.5 -14.5t51.5 14.5t31.5 53t15 105.5t4 171t-4 172t-15 106.5t-31.5 53t-51.5 14.5t-50.5 -14.5t-31.5 -53t-16 -106.5t-4 -172z" />
<glyph unicode="&#xf5;" horiz-adv-x="1024" d="M41 555q0 109 15.5 213t64.5 186t142 132.5t249 50.5q162 0 256 -46.5t141 -126t60.5 -185t13.5 -226.5q0 -109 -15.5 -213t-64.5 -186t-142 -132.5t-249 -50.5q-162 0 -256 46t-141 126t-60.5 186.5t-13.5 225.5zM174 1223q18 141 65.5 213.5t135.5 72.5q33 0 66.5 -9 t66.5 -21q33 -10 60.5 -20.5t50.5 -10.5t37 13.5t18 47.5h176q-16 -154 -73.5 -220t-131.5 -66q-41 0 -76.5 9t-66.5 21.5t-56.5 21.5t-47.5 9q-23 0 -35.5 -17.5t-12.5 -43.5h-176zM410 553q0 -104 4 -171t16 -105.5t31.5 -53t50.5 -14.5t51.5 14.5t31.5 53t15 105.5t4 171 t-4 172t-15 106.5t-31.5 53t-51.5 14.5t-50.5 -14.5t-31.5 -53t-16 -106.5t-4 -172z" />
<glyph unicode="&#xf6;" horiz-adv-x="1024" d="M41 555q0 109 15.5 213t64.5 186t142 132.5t249 50.5q162 0 256 -46.5t141 -126t60.5 -185t13.5 -226.5q0 -109 -15.5 -213t-64.5 -186t-142 -132.5t-249 -50.5q-162 0 -256 46t-141 126t-60.5 186.5t-13.5 225.5zM189 1204v287h274v-287h-274zM410 553q0 -104 4 -171 t16 -105.5t31.5 -53t50.5 -14.5t51.5 14.5t31.5 53t15 105.5t4 171t-4 172t-15 106.5t-31.5 53t-51.5 14.5t-50.5 -14.5t-31.5 -53t-16 -106.5t-4 -172zM561 1204v287h275v-287h-275z" />
<glyph unicode="&#xf7;" horiz-adv-x="1228" d="M96 375v287h1037v-287h-1037zM412 84q0 86 58 144.5t144 58.5t144.5 -58.5t58.5 -144.5t-58.5 -144.5t-144.5 -58.5t-144 58.5t-58 144.5zM412 952q0 86 58 144.5t144 58.5t144.5 -58.5t58.5 -144.5t-58.5 -144t-144.5 -58t-144 58t-58 144z" />
<glyph unicode="&#xf8;" horiz-adv-x="1024" d="M41 555q0 109 15.5 213t64.5 186t142 132.5t249 50.5q145 0 244 -41l82 139l114 -74l-86 -143q78 -78 97.5 -200t19.5 -265q0 -109 -15.5 -213t-64.5 -186t-142 -132.5t-249 -50.5q-158 0 -244 43l-86 -141l-110 74l84 143q-76 78 -95.5 200t-19.5 265zM410 532.5 q0 -10.5 2 -16.5l184 311q-12 41 -31.5 56.5t-52.5 15.5q-31 0 -50.5 -14.5t-31.5 -53t-16 -106.5t-4 -172v-20.5zM430 285q10 -43 29.5 -59.5t52.5 -16.5q31 0 51.5 14.5t31.5 53t15 105.5t4 171v41h-4z" />
<glyph unicode="&#xf9;" d="M74 272v836h368v-731q0 -70 20.5 -100.5t69.5 -30.5t70 30.5t21 100.5v731h368v-1108h-356v135h-4q-35 -82 -103.5 -123t-165.5 -41q-61 0 -113 13.5t-91 48.5t-61.5 93t-22.5 146zM268 1509h344l90 -299h-237z" />
<glyph unicode="&#xfa;" d="M74 272v836h368v-731q0 -70 20.5 -100.5t69.5 -30.5t70 30.5t21 100.5v731h368v-1108h-356v135h-4q-35 -82 -103.5 -123t-165.5 -41q-61 0 -113 13.5t-91 48.5t-61.5 93t-22.5 146zM383 1210l90 299h344l-197 -299h-237z" />
<glyph unicode="&#xfb;" d="M74 272v836h368v-731q0 -70 20.5 -100.5t69.5 -30.5t70 30.5t21 100.5v731h368v-1108h-356v135h-4q-35 -82 -103.5 -123t-165.5 -41q-61 0 -113 13.5t-91 48.5t-61.5 93t-22.5 146zM209 1210l127 299h393l127 -299h-250l-74 164l-73 -164h-250z" />
<glyph unicode="&#xfc;" d="M74 272v836h368v-731q0 -70 20.5 -100.5t69.5 -30.5t70 30.5t21 100.5v731h368v-1108h-356v135h-4q-35 -82 -103.5 -123t-165.5 -41q-61 0 -113 13.5t-91 48.5t-61.5 93t-22.5 146zM209 1204v287h274v-287h-274zM581 1204v287h275v-287h-275z" />
<glyph unicode="&#xfd;" horiz-adv-x="948" d="M-2 1108h381l113 -748h4l106 748h369l-297 -1145q-25 -96 -56.5 -158.5t-75.5 -99.5t-101.5 -51t-131.5 -14q-59 0 -109 2t-98 6v258q20 -4 41 -6t41 -2q35 0 58.5 10t38 23.5t20.5 27.5t6 23q0 12 -5 35.5t-11 45.5zM326 1210l90 299h344l-197 -299h-237z" />
<glyph unicode="&#xfe;" d="M80 -360v1822h369v-506h4q35 94 92 138q59 43 147 43q186 0 259 -149.5t73 -457.5q0 -160 -23.5 -267t-66.5 -171.5t-106.5 -92.5t-143.5 -28q-78 0 -140.5 34t-90.5 120h-4v-485h-369zM449 555q0 -90 4 -149.5t15 -95.5t31.5 -50t51.5 -14q33 0 53.5 14t31.5 50t15 95.5 t4 149.5t-4 148.5t-15 94.5t-31.5 50t-53.5 14q-31 0 -51.5 -14t-31.5 -50t-15 -94.5t-4 -148.5z" />
<glyph unicode="&#xff;" horiz-adv-x="948" d="M-2 1108h381l113 -748h4l106 748h369l-297 -1145q-25 -96 -56.5 -158.5t-75.5 -99.5t-101.5 -51t-131.5 -14q-59 0 -109 2t-98 6v258q20 -4 41 -6t41 -2q35 0 58.5 10t38 23.5t20.5 27.5t6 23q0 12 -5 35.5t-11 45.5zM152 1204v287h274v-287h-274zM524 1204v287h275v-287 h-275z" />
<glyph unicode="&#x152;" horiz-adv-x="1554" d="M47 731q0 215 23.5 360.5t75 234.5t131 127t192.5 38q80 0 146.5 -20.5t119.5 -71.5v63h768v-311h-456v-250h426v-299h-426v-291h475v-311h-787v63h-4q-37 -45 -103.5 -68.5t-148.5 -23.5q-131 0 -216 40t-132 131t-65.5 235.5t-18.5 353.5zM428 731q0 -147 4 -244.5 t17.5 -155t40 -80t71.5 -22.5q43 0 68.5 22.5t39 80t17.5 155t4 244.5t-4 244.5t-17.5 155t-39 80t-68.5 22.5q-45 0 -71.5 -22.5t-40 -80t-17.5 -155t-4 -244.5z" />
<glyph unicode="&#x153;" horiz-adv-x="1515" d="M27 553q0 158 25.5 268.5t80.5 180t144.5 102.5t216.5 33q94 0 175 -38t111 -87q45 51 119 88t184 37q104 0 180 -27t126.5 -89.5t75 -163.5t24.5 -253v-112h-545v-146q0 -90 31 -119.5t67 -29.5q49 0 76 38.5t27 153.5h332q-2 -100 -26 -178t-77 -131t-130 -81t-175 -28 q-111 0 -191.5 36t-113.5 102q-47 -76 -124 -107t-175 -31q-115 0 -198 31t-136 99.5t-78.5 180t-25.5 271.5zM395 553q0 -104 4 -171t16.5 -105.5t32 -53t50.5 -14.5t51 14.5t31.5 53t15.5 105.5t4 171t-4 172t-15.5 106.5t-32 53t-50.5 14.5q-31 0 -50.5 -14.5t-32 -53 t-16.5 -106.5t-4 -172zM944 692h201v49q0 88 -21.5 129t-81.5 41q-55 0 -76.5 -41t-21.5 -129v-49z" />
<glyph unicode="&#x178;" d="M-31 1462h418l143 -510h5l143 510h418l-373 -887v-575h-381v575zM209 1558v287h274v-287h-274zM581 1558v287h275v-287h-275z" />
<glyph unicode="&#x2c6;" horiz-adv-x="532" d="M-57 1210l127 299h393l127 -299h-250l-74 164l-73 -164h-250z" />
<glyph unicode="&#x2dc;" horiz-adv-x="532" d="M-72 1223q18 141 65.5 213.5t135.5 72.5q33 0 66.5 -9t66.5 -21q33 -10 60.5 -20.5t50.5 -10.5t37 13.5t18 47.5h176q-16 -154 -73.5 -220t-131.5 -66q-41 0 -76.5 9t-66.5 21.5t-56.5 21.5t-47.5 9q-23 0 -35.5 -17.5t-12.5 -43.5h-176z" />
<glyph unicode="&#x2000;" horiz-adv-x="995" />
<glyph unicode="&#x2001;" horiz-adv-x="1991" />
<glyph unicode="&#x2002;" horiz-adv-x="995" />
<glyph unicode="&#x2003;" horiz-adv-x="1991" />
<glyph unicode="&#x2004;" horiz-adv-x="663" />
<glyph unicode="&#x2005;" horiz-adv-x="497" />
<glyph unicode="&#x2006;" horiz-adv-x="331" />
<glyph unicode="&#x2007;" horiz-adv-x="331" />
<glyph unicode="&#x2008;" horiz-adv-x="248" />
<glyph unicode="&#x2009;" horiz-adv-x="398" />
<glyph unicode="&#x200a;" horiz-adv-x="110" />
<glyph unicode="&#x2010;" horiz-adv-x="753" d="M57 436v312h639v-312h-639z" />
<glyph unicode="&#x2011;" horiz-adv-x="753" d="M57 436v312h639v-312h-639z" />
<glyph unicode="&#x2012;" horiz-adv-x="753" d="M57 436v312h639v-312h-639z" />
<glyph unicode="&#x2013;" horiz-adv-x="1024" d="M0 442v299h1024v-299h-1024z" />
<glyph unicode="&#x2014;" horiz-adv-x="2048" d="M0 442v299h2048v-299h-2048z" />
<glyph unicode="&#x2018;" horiz-adv-x="532" d="M94 696v369q0 199 81 296t263 101v-176q-74 -8 -102.5 -49t-28.5 -123v-24h131v-394h-344z" />
<glyph unicode="&#x2019;" horiz-adv-x="532" d="M94 696v176q74 8 102.5 49.5t28.5 122.5v25h-131v393h344v-368q0 -199 -81 -296.5t-263 -101.5z" />
<glyph unicode="&#x201a;" horiz-adv-x="532" d="M94 12v394h344v-369q0 -199 -81 -296t-263 -101v176q74 8 102.5 49t28.5 123v24h-131z" />
<glyph unicode="&#x201c;" horiz-adv-x="985" d="M86 696v369q0 199 81 296t263 101v-176q-74 -8 -102.5 -49t-28.5 -123v-24h131v-394h-344zM555 696v369q0 199 81 296t263 101v-176q-74 -8 -102.5 -49t-28.5 -123v-24h131v-394h-344z" />
<glyph unicode="&#x201d;" horiz-adv-x="985" d="M86 696v176q74 8 102.5 49.5t28.5 122.5v25h-131v393h344v-368q0 -199 -81 -296.5t-263 -101.5zM555 696v176q74 8 102.5 49.5t28.5 122.5v25h-131v393h344v-368q0 -199 -81 -296.5t-263 -101.5z" />
<glyph unicode="&#x201e;" horiz-adv-x="985" d="M86 12v394h344v-369q0 -199 -81 -296t-263 -101v176q74 8 102.5 49t28.5 123v24h-131zM555 12v394h344v-369q0 -199 -81 -296t-263 -101v176q74 8 102.5 49t28.5 123v24h-131z" />
<glyph unicode="&#x2022;" horiz-adv-x="1024" d="M147 731q0 76 29 142.5t78 115.5t115.5 78t142.5 29t142.5 -29t115.5 -78t78 -115.5t29 -142.5t-29 -142.5t-78 -115.5t-115.5 -77.5t-142.5 -28.5t-142.5 28.5t-115.5 77.5t-78 115.5t-29 142.5z" />
<glyph unicode="&#x2026;" horiz-adv-x="2048" d="M170 0v406h344v-406h-344zM852 0v406h344v-406h-344zM1534 0v406h344v-406h-344z" />
<glyph unicode="&#x202f;" horiz-adv-x="398" />
<glyph unicode="&#x2039;" horiz-adv-x="491" d="M86 367v450l320 213v-323l-173 -115l173 -115v-323z" />
<glyph unicode="&#x203a;" horiz-adv-x="491" d="M86 154v323l172 115l-172 115v323l320 -213v-450z" />
<glyph unicode="&#x205f;" horiz-adv-x="497" />
<glyph unicode="&#x2122;" horiz-adv-x="2048" d="M20 1249v213h713v-213h-213v-631h-287v631h-213zM885 618v844h356l182 -448l183 448h356v-844h-262v533h-4l-185 -533h-176l-184 533h-4v-533h-262z" />
<glyph unicode="&#x25fc;" horiz-adv-x="1105" d="M0 0v1106h1106v-1106h-1106z" />
<glyph unicode="&#xfb01;" horiz-adv-x="1138" d="M0 860v248h127v80q0 84 17.5 141t57.5 93t105.5 52.5t161.5 16.5q41 0 87 -3t89 -9v-232q-14 4 -27.5 5t-33.5 1q-35 0 -61.5 -18t-26.5 -59v-68h149v-248h-149v-860h-369v860h-127zM690 0v1108h369v-1108h-369zM690 1188v274h369v-274h-369z" />
<glyph unicode="&#xfb02;" horiz-adv-x="1138" d="M0 860v248h127v80q0 84 17.5 141t57.5 93t105.5 52.5t161.5 16.5q41 0 87 -3t89 -9v-232q-14 4 -27.5 5t-33.5 1q-35 0 -61.5 -18t-26.5 -59v-68h149v-248h-149v-860h-369v860h-127zM690 0v1462h369v-1462h-369z" />
</font>
</defs>
</svg>
